<svg width="489.81768798828125px" height="120.8px" xmlns="http://www.w3.org/2000/svg" viewBox="5.091156005859375 14.600000000000001 489.81768798828125 120.8" style="background: rgba(0, 0, 0, 0);" preserveAspectRatio="xMidYMid"><defs><linearGradient id="editing-gradow-gradient" x1="0" x2="1" y1="0.5" y2="0.5" gradientUnits="objectBoundingBox"><stop offset="0" stop-color="#f0f"></stop><stop offset="1" stop-color="#0ff"></stop></linearGradient><filter id="editing-gradow-filter" x="-100%" y="-100%" width="300%" height="300%"><feFlood flood-color="#fffcd9" result="flood"></feFlood><feComposite operator="in" in2="SourceAlpha" in="flood" result="shadow"></feComposite><feOffset dx="-4" dy="-4" in="SourceGraphic" result="offset-1"></feOffset><feOffset dx="4" dy="4" in="shadow" result="offset-2"></feOffset><feMerge><feMergeNode in="offset-2"></feMergeNode><feMergeNode in="offset-1"></feMergeNode></feMerge></filter></defs><g filter="url(#editing-gradow-filter)"><g transform="translate(78.80063354969025, 98.68000221252441)"><path d="M26.05-29.57L26.05-29.57L26.05-29.57Q27.01-31.49 27.01-33.28L27.01-33.28L27.01-33.28Q27.01-35.07 26.82-36.06L26.82-36.06L26.82-36.06Q26.62-37.06 26.18-37.82L26.18-37.82L26.18-37.82Q25.22-39.49 23.30-39.49L23.30-39.49L23.30-39.49Q20.93-39.49 19.01-37.76L19.01-37.76L19.01-37.76Q16.96-35.97 16.96-33.15L16.96-33.15L16.96-33.15Q16.96-31.36 18.21-29.98L18.21-29.98L18.21-29.98Q19.46-28.61 21.38-27.33L21.38-27.33L21.38-27.33Q23.30-26.05 25.47-24.77L25.47-24.77L25.47-24.77Q27.65-23.49 29.57-21.95L29.57-21.95L29.57-21.95Q33.98-18.43 33.98-13.70L33.98-13.70L33.98-13.70Q33.98-10.50 32.29-7.78L32.29-7.78L32.29-7.78Q30.59-5.06 27.78-3.07L27.78-3.07L27.78-3.07Q21.63 1.28 13.50 1.28L13.50 1.28L13.50 1.28Q6.91 1.28 3.52-0.86L3.52-0.86L3.52-0.86Q0.13-3.01 0.13-6.27L0.13-6.27L0.13-6.27Q0.13-12.10 4.67-13.57L4.67-13.57L4.67-13.57Q5.95-14.02 7.90-14.02L7.90-14.02L7.90-14.02Q9.86-14.02 12.10-13.18L12.10-13.18L12.10-13.18Q11.07-10.56 11.07-8.19L11.07-8.19L11.07-8.19Q11.07-3.07 14.72-3.07L14.72-3.07L14.72-3.07Q17.09-3.07 19.04-4.80L19.04-4.80L19.04-4.80Q20.99-6.53 20.99-8.48L20.99-8.48L20.99-8.48Q20.99-10.43 19.74-11.84L19.74-11.84L19.74-11.84Q18.50-13.25 16.64-14.37L16.64-14.37L16.64-14.37Q14.78-15.49 12.64-16.58L12.64-16.58L12.64-16.58Q10.50-17.66 8.64-19.20L8.64-19.20L8.64-19.20Q4.29-22.72 4.29-28.35L4.29-28.35L4.29-28.35Q4.29-32 6.08-34.85L6.08-34.85L6.08-34.85Q7.87-37.70 10.75-39.62L10.75-39.62L10.75-39.62Q16.51-43.52 23.58-43.52L23.58-43.52L23.58-43.52Q30.66-43.52 34.08-41.41L34.08-41.41L34.08-41.41Q37.50-39.30 37.50-35.71L37.50-35.71L37.50-35.71Q37.50-32.58 35.07-30.59L35.07-30.59L35.07-30.59Q32.96-28.93 30.40-28.93L30.40-28.93L30.40-28.93Q27.84-28.93 26.05-29.57ZM71.04-7.10L71.04-7.10L71.04-7.10Q71.04-4.29 73.92-3.46L73.92-3.46L73.92-3.46Q73.22-1.09 70.46 0.19L70.46 0.19L70.46 0.19Q68.16 1.28 65.63 1.28L65.63 1.28L65.63 1.28Q63.10 1.28 61.79 0.61L61.79 0.61L61.79 0.61Q60.48-0.06 59.78-1.15L59.78-1.15L59.78-1.15Q58.62-2.82 58.62-5.95L58.62-5.95L58.62-5.95Q58.62-7.81 59.65-12.93L59.65-12.93L60.54-17.79L60.54-17.79Q61.63-23.36 61.63-25.41L61.63-25.41L61.63-25.41Q61.63-28.99 59.65-28.99L59.65-28.99L59.65-28.99Q57.15-28.99 55.55-25.34L55.55-25.34L55.55-25.34Q54.91-23.94 54.46-21.82L54.46-21.82L50.11 0L37.25 1.28L46.27-44.80L59.14-46.08L58.62-43.52L58.62-43.52Q56.83-33.66 55.30-30.34L55.30-30.34L55.30-30.34Q58.88-33.92 65.47-33.92L65.47-33.92L65.47-33.92Q72.45-33.92 73.73-29.31L73.73-29.31L73.73-29.31Q74.18-27.84 74.18-26.56L74.18-26.56L74.18-26.56Q74.18-25.28 74.08-24.29L74.08-24.29L74.08-24.29Q73.98-23.30 73.66-21.50L73.66-21.50L72.83-16.90L71.36-9.66L71.36-9.66Q71.04-8.19 71.04-7.10ZM93.06 1.28L93.06 1.28L93.06 1.28Q78.98 1.28 78.98-11.97L78.98-11.97L78.98-11.97Q78.98-21.38 84.16-27.46L84.16-27.46L84.16-27.46Q89.66-33.92 99.20-33.92L99.20-33.92L99.20-33.92Q106.11-33.92 109.63-30.72L109.63-30.72L109.63-30.72Q113.15-27.52 113.15-20.80L113.15-20.80L113.15-20.80Q113.15-10.56 107.65-4.61L107.65-4.61L107.65-4.61Q102.27 1.28 93.06 1.28ZM94.72-26.56L94.72-26.56L94.72-26.56Q93.95-24.83 93.34-22.24L93.34-22.24L93.34-22.24Q92.74-19.65 91.97-15.55L91.97-15.55L91.97-15.55Q91.20-11.46 91.20-6.40L91.20-6.40L91.20-6.40Q91.20-4.74 91.74-3.65L91.74-3.65L91.74-3.65Q92.29-2.56 93.76-2.56L93.76-2.56L93.76-2.56Q95.23-2.56 96.16-3.26L96.16-3.26L96.16-3.26Q97.09-3.97 97.79-5.63L97.79-5.63L97.79-5.63Q99.07-8.58 100.10-14.05L100.10-14.05L100.10-14.05Q101.12-19.52 101.22-21.89L101.22-21.89L101.22-21.89Q101.31-24.26 101.31-26.02L101.31-26.02L101.31-26.02Q101.31-27.78 100.80-28.93L100.80-28.93L100.80-28.93Q100.29-30.08 98.85-30.08L98.85-30.08L98.85-30.08Q97.41-30.08 96.45-29.18L96.45-29.18L96.45-29.18Q95.49-28.29 94.72-26.56ZM130.88 1.28L130.88 1.28L130.88 1.28Q116.80 1.28 116.80-11.97L116.80-11.97L116.80-11.97Q116.80-21.38 121.98-27.46L121.98-27.46L121.98-27.46Q127.49-33.92 137.02-33.92L137.02-33.92L137.02-33.92Q143.94-33.92 147.46-30.72L147.46-30.72L147.46-30.72Q150.98-27.52 150.98-20.80L150.98-20.80L150.98-20.80Q150.98-10.56 145.47-4.61L145.47-4.61L145.47-4.61Q140.10 1.28 130.88 1.28ZM132.54-26.56L132.54-26.56L132.54-26.56Q131.78-24.83 131.17-22.24L131.17-22.24L131.17-22.24Q130.56-19.65 129.79-15.55L129.79-15.55L129.79-15.55Q129.02-11.46 129.02-6.40L129.02-6.40L129.02-6.40Q129.02-4.74 129.57-3.65L129.57-3.65L129.57-3.65Q130.11-2.56 131.58-2.56L131.58-2.56L131.58-2.56Q133.06-2.56 133.98-3.26L133.98-3.26L133.98-3.26Q134.91-3.97 135.62-5.63L135.62-5.63L135.62-5.63Q136.90-8.58 137.92-14.05L137.92-14.05L137.92-14.05Q138.94-19.52 139.04-21.89L139.04-21.89L139.04-21.89Q139.14-24.26 139.14-26.02L139.14-26.02L139.14-26.02Q139.14-27.78 138.62-28.93L138.62-28.93L138.62-28.93Q138.11-30.08 136.67-30.08L136.67-30.08L136.67-30.08Q135.23-30.08 134.27-29.18L134.27-29.18L134.27-29.18Q133.31-28.29 132.54-26.56ZM181.82 1.28L181.82 1.28L181.82 1.28Q174.08 1.28 174.08-4.74L174.08-4.74L174.08-4.74Q174.14-6.40 174.66-9.22L174.66-9.22L175.81-15.10L175.81-15.10Q177.54-23.42 177.54-25.28L177.54-25.28L177.54-25.28Q177.54-28.99 175.36-28.99L175.36-28.99L175.36-28.99Q171.71-28.99 169.79-19.46L169.79-19.46L166.02 0L153.15 1.28L159.81-32.70L170.30-33.92L169.28-27.65L169.28-27.65Q172.29-33.92 181.50-33.92L181.50-33.92L181.50-33.92Q185.98-33.92 187.87-32.03L187.87-32.03L187.87-32.03Q189.76-30.14 189.76-25.92L189.76-25.92L189.76-25.92Q189.76-21.95 187.71-12.67L187.71-12.67L187.71-12.67Q186.75-8.51 186.75-6.94L186.75-6.94L186.75-6.94Q186.75-5.38 187.62-4.48L187.62-4.48L187.62-4.48Q188.48-3.58 189.76-3.46L189.76-3.46L189.76-3.46Q189.12-1.28 186.91 0L186.91 0L186.91 0Q184.70 1.28 181.82 1.28ZM234.82-9.86L234.82-9.86L234.82-9.86Q236.03-8.32 236.03-5.34L236.03-5.34L236.03-5.34Q236.03-2.37 233.76-0.54L233.76-0.54L233.76-0.54Q231.49 1.28 227.52 1.28L227.52 1.28L227.52 1.28Q225.22 1.28 221.63 0.77L221.63 0.77L221.63 0.77Q214.59-0.32 212.58-0.32L212.58-0.32L212.58-0.32Q210.56-0.32 209.73-0.22L209.73-0.22L209.73-0.22Q208.90-0.13 207.55 0L207.55 0L215.30-42.24L229.31-42.24L222.91-7.04L222.91-7.04Q223.74-6.91 224.51-6.91L224.51-6.91L226.11-6.91L226.11-6.91Q231.49-6.91 234.82-9.86ZM243.10-1.92L243.10-1.92L243.10-1.92Q241.60-3.58 240.93-6.21L240.93-6.21L240.93-6.21Q240.26-8.83 240.26-13.12L240.26-13.12L240.26-13.12Q240.26-17.41 241.73-21.31L241.73-21.31L241.73-21.31Q243.20-25.22 245.89-28.03L245.89-28.03L245.89-28.03Q251.39-33.92 260.48-33.92L260.48-33.92L260.48-33.92Q263.74-33.92 266.11-32.83L266.11-32.83L277.06-33.92L272.32-8.96L272.32-8.96Q272.13-8.19 272.13-6.78L272.13-6.78L272.13-6.78Q272.13-5.38 272.99-4.48L272.99-4.48L272.99-4.48Q273.86-3.58 275.14-3.46L275.14-3.46L275.14-3.46Q274.50-1.28 272.16 0L272.16 0L272.16 0Q269.82 1.28 267.20 1.28L267.20 1.28L267.20 1.28Q264.58 1.28 262.82 0.29L262.82 0.29L262.82 0.29Q261.06-0.70 260.54-2.37L260.54-2.37L260.54-2.37Q259.52-0.77 257.34 0.26L257.34 0.26L257.34 0.26Q255.17 1.28 252.26 1.28L252.26 1.28L252.26 1.28Q249.34 1.28 246.98 0.51L246.98 0.51L246.98 0.51Q244.61-0.26 243.10-1.92ZM256.61-27.90L256.61-27.90L256.61-27.90Q255.87-26.75 255.23-24.80L255.23-24.80L255.23-24.80Q254.59-22.85 253.54-17.63L253.54-17.63L253.54-17.63Q252.48-12.42 252.48-8.70L252.48-8.70L252.48-8.70Q252.48-4.99 253.06-3.90L253.06-3.90L253.06-3.90Q253.63-2.82 254.66-2.82L254.66-2.82L254.66-2.82Q256.70-2.82 258.21-4.77L258.21-4.77L258.21-4.77Q259.71-6.72 260.29-10.18L260.29-10.18L263.68-28.93L263.68-28.93Q262.34-30.08 260.77-30.08L260.77-30.08L260.77-30.08Q259.20-30.08 258.27-29.57L258.27-29.57L258.27-29.57Q257.34-29.06 256.61-27.90ZM283.04-1.92L283.04-1.92L283.04-1.92Q281.54-3.58 280.86-6.21L280.86-6.21L280.86-6.21Q280.19-8.83 280.19-13.12L280.19-13.12L280.19-13.12Q280.19-17.41 281.66-21.31L281.66-21.31L281.66-21.31Q283.14-25.22 285.82-28.03L285.82-28.03L285.82-28.03Q291.33-33.92 300.42-33.92L300.42-33.92L300.42-33.92Q303.68-33.92 306.05-32.83L306.05-32.83L316.99-33.92L312.26-8.96L312.26-8.96Q312.06-8.19 312.06-6.78L312.06-6.78L312.06-6.78Q312.06-5.38 312.93-4.48L312.93-4.48L312.93-4.48Q313.79-3.58 315.07-3.46L315.07-3.46L315.07-3.46Q314.43-1.28 312.10 0L312.10 0L312.10 0Q309.76 1.28 307.14 1.28L307.14 1.28L307.14 1.28Q304.51 1.28 302.75 0.29L302.75 0.29L302.75 0.29Q300.99-0.70 300.48-2.37L300.48-2.37L300.48-2.37Q299.46-0.77 297.28 0.26L297.28 0.26L297.28 0.26Q295.10 1.28 292.19 1.28L292.19 1.28L292.19 1.28Q289.28 1.28 286.91 0.51L286.91 0.51L286.91 0.51Q284.54-0.26 283.04-1.92ZM296.54-27.90L296.54-27.90L296.54-27.90Q295.81-26.75 295.17-24.80L295.17-24.80L295.17-24.80Q294.53-22.85 293.47-17.63L293.47-17.63L293.47-17.63Q292.42-12.42 292.42-8.70L292.42-8.70L292.42-8.70Q292.42-4.99 292.99-3.90L292.99-3.90L292.99-3.90Q293.57-2.82 294.59-2.82L294.59-2.82L294.59-2.82Q296.64-2.82 298.14-4.77L298.14-4.77L298.14-4.77Q299.65-6.72 300.22-10.18L300.22-10.18L303.62-28.93L303.62-28.93Q302.27-30.08 300.70-30.08L300.70-30.08L300.70-30.08Q299.14-30.08 298.21-29.57L298.21-29.57L298.21-29.57Q297.28-29.06 296.54-27.90ZM321.47-6.40L321.47-6.40L321.47-6.40Q321.47-8.13 322.37-12.48L322.37-12.48L325.76-29.76L321.98-29.76L322.24-31.68L322.24-31.68Q329.92-33.98 337.34-39.62L337.34-39.62L340.42-39.62L338.88-32.64L343.87-32.64L343.30-29.76L338.37-29.76L335.10-12.48L335.10-12.48Q334.27-8.51 334.27-7.17L334.27-7.17L334.27-7.17Q334.27-4.10 336.96-3.46L336.96-3.46L336.96-3.46Q336.32-1.28 334.02 0L334.02 0L334.02 0Q331.71 1.28 328.45 1.28L328.45 1.28L328.45 1.28Q325.18 1.28 323.33-0.77L323.33-0.77L323.33-0.77Q321.47-2.82 321.47-6.40Z" fill="url(#editing-gradow-gradient)"></path></g></g><style>text {
  font-size: 64px;
  font-family: Arial Black;
  dominant-baseline: central;
  text-anchor: middle;
}</style></svg>